<svg width="1600" height="900" viewBox="0 0 1600 900" fill="none" xmlns="http://www.w3.org/2000/svg">
  <defs>
    <linearGradient id="sky" x1="800" y1="0" x2="800" y2="900" gradientUnits="userSpaceOnUse">
      <stop stop-color="#8C79CF"/>
      <stop offset="0.45" stop-color="#D08BB2"/>
      <stop offset="0.75" stop-color="#E8A07E"/>
      <stop offset="1" stop-color="#101B39"/>
    </linearGradient>
    <linearGradient id="mist" x1="800" y1="250" x2="800" y2="720" gradientUnits="userSpaceOnUse">
      <stop stop-color="#F4C8D7" stop-opacity="0.32"/>
      <stop offset="1" stop-color="#221A3E" stop-opacity="0"/>
    </linearGradient>
  </defs>

  <rect width="1600" height="900" fill="url(#sky)"/>
  <circle cx="820" cy="310" r="180" fill="#FFF4EE" opacity="0.92"/>

  <g opacity="0.5" fill="#B3638F">
    <rect x="40" y="190" width="120" height="260"/>
    <rect x="190" y="140" width="90" height="310"/>
    <rect x="320" y="180" width="120" height="270"/>
    <rect x="470" y="160" width="100" height="290"/>
    <rect x="600" y="210" width="130" height="240"/>
    <rect x="760" y="150" width="120" height="300"/>
    <rect x="920" y="180" width="90" height="270"/>
    <rect x="1050" y="150" width="140" height="300"/>
    <rect x="1220" y="190" width="100" height="260"/>
    <rect x="1350" y="160" width="150" height="290"/>
  </g>

  <g opacity="0.35" stroke="#6F3A67" stroke-width="12">
    <line x1="0" y1="520" x2="1600" y2="520"/>
    <line x1="0" y1="600" x2="1600" y2="600"/>
    <line x1="0" y1="680" x2="1600" y2="680"/>
  </g>

  <g fill="#0B2A3A">
    <rect x="0" y="620" width="180" height="280"/>
    <rect x="220" y="560" width="130" height="340"/>
    <rect x="390" y="520" width="190" height="380"/>
    <rect x="620" y="590" width="210" height="310"/>
    <rect x="870" y="540" width="280" height="360"/>
    <rect x="1190" y="580" width="150" height="320"/>
    <rect x="1360" y="530" width="240" height="370"/>
  </g>

  <rect width="1600" height="900" fill="url(#mist)"/>
</svg>
