<svg width="1600" height="900" viewBox="0 0 1600 900" fill="none" xmlns="http://www.w3.org/2000/svg">
  <defs>
    <linearGradient id="sky" x1="800" y1="0" x2="800" y2="900" gradientUnits="userSpaceOnUse">
      <stop stop-color="#312E81"/>
      <stop offset="0.48" stop-color="#0F172A"/>
      <stop offset="1" stop-color="#020617"/>
    </linearGradient>
    <radialGradient id="moon" cx="0" cy="0" r="1" gradientUnits="userSpaceOnUse" gradientTransform="translate(1198 180) rotate(90) scale(220)">
      <stop stop-color="#E0E7FF"/>
      <stop offset="1" stop-color="#A5B4FC" stop-opacity="0"/>
    </radialGradient>
    <pattern id="windows" width="16" height="16" patternUnits="userSpaceOnUse">
      <rect width="6" height="6" fill="#FDE68A" fill-opacity="0.55"/>
    </pattern>
  </defs>

  <rect width="1600" height="900" fill="url(#sky)"/>
  <circle cx="1198" cy="180" r="220" fill="url(#moon)"/>

  <g fill="#C4B5FD" opacity="0.6">
    <circle cx="170" cy="120" r="2"/><circle cx="260" cy="170" r="2"/><circle cx="344" cy="86" r="2"/><circle cx="470" cy="156" r="2"/>
    <circle cx="596" cy="124" r="2"/><circle cx="720" cy="162" r="2"/><circle cx="850" cy="104" r="2"/><circle cx="965" cy="145" r="2"/>
    <circle cx="1066" cy="100" r="2"/><circle cx="1310" cy="112" r="2"/><circle cx="1454" cy="88" r="2"/><circle cx="1510" cy="155" r="2"/>
  </g>

  <g opacity="0.45">
    <rect x="32" y="450" width="120" height="320" rx="2" fill="#1E1B4B"/>
    <rect x="172" y="390" width="140" height="380" rx="2" fill="#1F224A"/>
    <rect x="342" y="420" width="98" height="350" rx="2" fill="#1E293B"/>
    <rect x="466" y="358" width="162" height="412" rx="2" fill="#312E81"/>
    <rect x="654" y="404" width="126" height="366" rx="2" fill="#1E3A8A"/>
    <rect x="804" y="370" width="154" height="400" rx="2" fill="#1E1B4B"/>
    <rect x="986" y="430" width="110" height="340" rx="2" fill="#1E293B"/>
    <rect x="1120" y="360" width="184" height="410" rx="2" fill="#3730A3"/>
    <rect x="1332" y="396" width="140" height="374" rx="2" fill="#1E3A8A"/>
  </g>

  <g opacity="0.75">
    <rect x="64" y="530" width="156" height="290" fill="#0F172A"/>
    <rect x="64" y="530" width="156" height="290" fill="url(#windows)"/>

    <rect x="248" y="478" width="194" height="342" fill="#111827"/>
    <rect x="248" y="478" width="194" height="342" fill="url(#windows)"/>

    <rect x="472" y="522" width="124" height="298" fill="#1F2937"/>
    <rect x="472" y="522" width="124" height="298" fill="url(#windows)"/>

    <rect x="624" y="452" width="182" height="368" fill="#0F172A"/>
    <rect x="624" y="452" width="182" height="368" fill="url(#windows)"/>

    <rect x="838" y="510" width="142" height="310" fill="#1F2937"/>
    <rect x="838" y="510" width="142" height="310" fill="url(#windows)"/>

    <rect x="1004" y="442" width="220" height="378" fill="#111827"/>
    <rect x="1004" y="442" width="220" height="378" fill="url(#windows)"/>

    <rect x="1252" y="486" width="132" height="334" fill="#0F172A"/>
    <rect x="1252" y="486" width="132" height="334" fill="url(#windows)"/>

    <rect x="1412" y="548" width="114" height="272" fill="#1F2937"/>
    <rect x="1412" y="548" width="114" height="272" fill="url(#windows)"/>
  </g>

  <rect y="778" width="1600" height="122" fill="#020617"/>
  <rect y="778" width="1600" height="8" fill="#312E81" fill-opacity="0.6"/>
</svg>
